<svg xmlns="http://www.w3.org/2000/svg" viewBox="0 0 900 560" font-family="Helvetica, Arial, sans-serif">
  <rect x="0" y="0" width="900" height="560" fill="#ffffff"/>

  <text x="90"  y="90"  text-anchor="middle" font-size="13" fill="#444">Actions /</text>
  <text x="90"  y="108" text-anchor="middle" font-size="13" fill="#444">heuristics</text>
  <text x="810" y="90"  text-anchor="middle" font-size="13" fill="#444">Actions /</text>
  <text x="810" y="108" text-anchor="middle" font-size="13" fill="#444">heuristics</text>

  <text x="90"  y="285" text-anchor="middle" font-size="13" fill="#444">Signals /</text>
  <text x="90"  y="303" text-anchor="middle" font-size="13" fill="#444">observations</text>
  <text x="810" y="285" text-anchor="middle" font-size="13" fill="#444">Signals /</text>
  <text x="810" y="303" text-anchor="middle" font-size="13" fill="#444">observations</text>

  <rect x="180" y="130" width="270" height="160" fill="#d9ebd4" stroke="#666" stroke-width="1"/>
  <rect x="450" y="130" width="270" height="160" fill="#ead4e8" stroke="#666" stroke-width="1"/>
  <rect x="180" y="290" width="270" height="160" fill="#ead4e8" stroke="#666" stroke-width="1"/>
  <rect x="450" y="290" width="270" height="160" fill="#d9ebd4" stroke="#666" stroke-width="1"/>

  <text x="315" y="160" text-anchor="middle" font-size="13" fill="#2b2b2b">Positive effect from</text>
  <text x="315" y="178" text-anchor="middle" font-size="13" fill="#2b2b2b">100% side L</text>

  <text x="585" y="160" text-anchor="middle" font-size="13" fill="#2b2b2b">Positive effect from</text>
  <text x="585" y="178" text-anchor="middle" font-size="13" fill="#2b2b2b">100% side R</text>

  <text x="315" y="430" text-anchor="middle" font-size="13" fill="#2b2b2b">Negative effect from</text>
  <text x="315" y="448" text-anchor="middle" font-size="13" fill="#2b2b2b">100% side L</text>

  <text x="585" y="430" text-anchor="middle" font-size="13" fill="#2b2b2b">Negative effect from</text>
  <text x="585" y="448" text-anchor="middle" font-size="13" fill="#2b2b2b">100% side R</text>

  <rect x="410" y="108" width="80" height="22" fill="#e8a978"/>
  <text x="450" y="124" text-anchor="middle" font-size="15" font-weight="bold" fill="#ffffff">++</text>

  <rect x="410" y="450" width="80" height="22" fill="#e8a978"/>
  <text x="450" y="467" text-anchor="middle" font-size="15" font-weight="bold" fill="#ffffff">−−</text>

  <rect x="158" y="280" width="30" height="22" fill="#e8a978"/>
  <text x="173" y="296" text-anchor="middle" font-size="14" font-weight="bold" fill="#ffffff">L</text>

  <rect x="712" y="280" width="30" height="22" fill="#e8a978"/>
  <text x="727" y="296" text-anchor="middle" font-size="14" font-weight="bold" fill="#ffffff">R</text>

  <text x="450" y="308" text-anchor="middle" font-size="72" font-weight="bold" fill="#333">∞</text>

  <text x="450" y="520" text-anchor="middle" font-size="12" fill="#666" font-style="italic">
    Johnson's Polarity Map — CC BY-SA 4.0
  </text>
</svg>
